<?xml version="1.0" encoding="UTF-8"?>
<svg width="1200pt" height="1200pt" version="1.1" viewBox="0 0 1200 1200" xmlns="http://www.w3.org/2000/svg">
 <g fill="#3b6af9">
  <path d="m739.2 531.6h-99.602l-80.398-88.801c-22.801-26.398-56.398-40.801-91.199-40.801h-91.199c-40.801 0-79.199 20.398-102 54l-132 192c-12 18-14.398 40.801-2.3984 58.801 10.801 15.602 26.398 22.801 43.199 22.801 15.602 0 32.398-7.1992 42-21.602l68.398-99.602v508.8c0 25.199 18 49.199 42 52.801 32.398 4.8008 58.801-19.199 58.801-50.398v-315.6h49.199v312c0 25.199 18 49.199 42 52.801 32.398 4.8008 58.801-19.199 58.801-50.398v-541.2l34.801 38.398c9.6016 10.801 24 16.801 38.398 16.801h121.2c27.602 0 50.398-22.801 50.398-50.398 1.2031-28.801-21.598-50.398-50.398-50.398z"/>
  <path d="m531.6 260.4c0 62.301-50.504 112.8-112.8 112.8s-112.8-50.5-112.8-112.8c0-62.297 50.504-112.8 112.8-112.8s112.8 50.5 112.8 112.8"/>
  <path d="m1050 217.2-57.602-6c-2.3984 0-3.6016-1.1992-4.8008-3.6016-2.3984-6-4.8008-13.199-8.3984-19.199-1.1992-2.3984-1.1992-3.6016 1.1992-6l36-44.398c6-7.1992 4.8008-18-1.1992-24l-34.801-34.801c-6-6-16.801-7.1992-24-1.1992l-44.398 36c-1.1992 1.1992-3.6016 1.1992-6 1.1992-6-2.3984-12-6-19.199-8.3984-2.3984-1.1992-3.6016-2.3984-3.6016-4.8008l-6-57.602c-1.1992-9.6016-8.3984-15.602-18-15.602h-49.199c-9.6016 0-16.801 7.1992-18 15.602l-6 57.602c0 2.3984-1.1992 3.6016-3.6016 4.8008-6 2.3984-13.199 4.8008-19.199 8.3984-2.3984 1.1992-3.6016 1.1992-6-1.1992l-44.398-36c-7.1992-6-18-4.8008-24 1.1992l-34.801 34.801c-6 6-7.1992 16.801-1.1992 24l36 44.398c1.1992 1.1992 1.1992 3.6016 1.1992 6-3.6016 6-6 12-8.3984 19.199-1.1992 2.3984-2.3984 3.6016-4.8008 3.6016l-57.602 6c-9.6016 1.1992-15.602 8.3984-15.602 18v49.199c0 9.6016 7.1992 16.801 15.602 18l57.602 6c2.3984 0 3.6016 1.1992 4.8008 3.6016 2.3984 6 4.8008 13.199 8.3984 19.199 1.1992 2.3984 1.1992 3.6016-1.1992 6l-36 44.398c-6 7.1992-4.8008 18 1.1992 24l34.801 34.801c6 6 16.801 7.1992 24 1.1992l44.398-36c1.1992-1.1992 3.6016-1.1992 6-1.1992 6 2.3984 12 6 19.199 8.3984 2.3984 1.1992 3.6016 2.3984 3.6016 4.8008l6 57.602c1.1992 9.6016 8.3984 15.602 18 15.602h49.199c9.6016 0 16.801-7.1992 18-15.602l6-57.602c0-2.3984 1.1992-3.6016 3.6016-4.8008 6-2.3984 13.199-4.8008 19.199-8.3984 2.3984-1.1992 3.6016-1.1992 6 1.1992l44.398 36c7.1992 6 18 4.8008 24-1.1992l34.801-34.801c6-6 7.1992-16.801 1.1992-24l-36-44.398c-1.1992-1.1992-1.1992-3.6016-1.1992-6 2.3984-6 6-12 8.3984-19.199 1.1992-2.3984 2.3984-3.6016 4.8008-3.6016l57.602-6c9.6016-1.1992 15.602-8.3984 15.602-18v-49.199c1.1992-9.5977-6-16.801-15.602-18zm-213.6 140.4c-54 0-98.398-44.398-98.398-98.398s44.398-98.398 98.398-98.398 98.398 44.398 98.398 98.398c0.003906 55.195-43.195 98.398-98.398 98.398z"/>
  <path d="m861.6 222-36 43.199-13.199-15.602c-6-7.1992-18-8.3984-25.199-2.3984s-8.3984 18-2.3984 25.199l27.602 32.398c3.6016 3.6016 8.3984 6 13.199 6s10.801-2.3984 13.199-6l49.199-58.801c6-7.1992 4.8008-19.199-2.3984-25.199-7.207-7.1953-18.004-5.9961-24.004 1.2031z"/>
 </g>
</svg>
