<?xml version="1.0" encoding="UTF-8"?>
<svg width="1200pt" height="1200pt" version="1.1" viewBox="0 0 1200 1200" xmlns="http://www.w3.org/2000/svg">
 <path d="m600 132c-258 0-468 210-468 468s210 468 468 468 468-210 468-468-210-468-468-468zm188.04 504h-152.04v152.04c0 19.922-16.078 36-36 36s-36-16.078-36-36v-152.04h-152.04c-19.922 0-36-16.078-36-36s16.078-36 36-36h152.04v-152.04c0-19.922 16.078-36 36-36s36 16.078 36 36v152.04h152.04c19.922 0 36 16.078 36 36s-16.199 36-36 36z" fill="#3b6af9"/>
</svg>
