<?xml version="1.0" encoding="UTF-8"?>
<svg width="1200pt" height="1200pt" version="1.1" viewBox="0 0 1200 1200" xmlns="http://www.w3.org/2000/svg">
 <g fill="#3b6af9">
  <path d="m600 824.04c-19.922 0-36-16.078-36-36v-376.08c0-19.922 16.078-36 36-36s36 16.078 36 36v375.96c0 19.918-16.078 36.117-36 36.117z"/>
  <path d="m788.04 636h-376.08c-19.922 0-36-16.078-36-36s16.078-36 36-36h375.96c19.922 0 36 16.078 36 36s-16.082 36-35.883 36z"/>
  <path d="m600 1068c-258 0-468-210-468-468s210-468 468-468 468 210 468 468-210 468-468 468zm0-864c-218.4 0-396 177.6-396 396s177.6 396 396 396 396-177.6 396-396-177.6-396-396-396z"/>
 </g>
</svg>
