<?xml version="1.0" encoding="UTF-8"?>
<svg width="100pt" height="100pt" version="1.1" viewBox="0 0 100 100" xmlns="http://www.w3.org/2000/svg">
 <g fill="#3b69f9">
  <path d="m92.941 11.293c2.7344 2.7344 2.7344 7.1641 0 9.8984l-8.8867 8.8906-14.145-14.145 8.8906-8.8867c2.7344-2.7344 7.1641-2.7344 9.8984 0z"/>
  <path d="m34.062 51.785 30.898-30.898 14.145 14.145-31.156 31.152c-0.92969 0.92969-2.1016 1.5781-3.3828 1.875l-8.9414 2.0508c-2.7188 0.62109-5.2266-1.6602-4.8594-4.4258l1.3086-9.8672c0.20312-1.5234 0.90234-2.9414 1.9883-4.0312z"/>
  <path d="m17 18c0-0.55078 0.44922-1 1-1h29c3.3125 0 6-2.6875 6-6s-2.6875-6-6-6h-29c-7.1797 0-13 5.8203-13 13v64c0 7.1797 5.8203 13 13 13h64c7.1797 0 13-5.8203 13-13v-29c0-3.3125-2.6875-6-6-6s-6 2.6875-6 6v29c0 0.55078-0.44922 1-1 1h-64c-0.55078 0-1-0.44922-1-1z"/>
 </g>
</svg>
