<?xml version="1.0" encoding="UTF-8"?>
<svg width="100pt" height="100pt" version="1.1" viewBox="0 0 100 100" xmlns="http://www.w3.org/2000/svg">
 <g fill="#3b69f9">
  <path d="m44.262 40.602c2.9492-2.4492 8.5117-2.5781 11.211-0.55078 0.92188 0.69141 1.3789 1.8203 1.2305 2.9609l-3.1406 23.25c-0.089844 0.67969-0.37891 1.3203-0.85156 1.8203-1.6914 1.8086-3.8906 1.4102-5.3398-0.21875-0.37109-0.42188-0.60156-0.94922-0.67969-1.5117l-3.3906-23.191c-0.14062-0.96094 0.21094-1.9414 0.96094-2.5586z"/>
  <path d="m55.41 77.98c0 7.1602-10.738 7.1602-10.738 0 0-7.1602 10.738-7.1602 10.738 0"/>
  <path d="m51.68 2.0312c-2.1914 0-4.2109 1.2891-5.3008 3.3789l-42.719 82.441c-1.1719 2.25-1.0781 4.9883 0.23047 7.1406 1.1289 1.8594 3.0195 2.9609 5.0586 2.9609h82.09c2 0 3.8711-1.0703 5.0117-2.8711 1.3203-2.0898 1.4688-4.7812 0.39062-7.0312l-39.363-82.441c-1.0391-2.1719-3.0703-3.5508-5.3086-3.5781h-0.089843zm-42.609 89.93c-0.16016-0.19141-0.37109-0.78906-0.089843-1.3398l42.699-82.391 39.352 82.422c0.26172 0.55078 0.050781 1.1289-0.10156 1.3086z"/>
 </g>
</svg>
