<?xml version="1.0" encoding="UTF-8"?>
<svg width="100pt" height="100pt" version="1.1" viewBox="0 0 100 100" xmlns="http://www.w3.org/2000/svg">
 <path d="m59.375 50c0 5.168-4.207 9.375-9.375 9.375s-9.375-4.207-9.375-9.375 4.207-9.375 9.375-9.375 9.375 4.207 9.375 9.375zm34.215 4.0195c-7.125 15.594-24.234 25.668-43.59 25.668-19.359 0-36.469-10.074-43.586-25.668-1.168-2.5547-1.168-5.4844 0-8.043 7.1172-15.59 24.227-25.664 43.586-25.664 19.355 0 36.465 10.074 43.586 25.668 1.1641 2.5547 1.1641 5.4844 0.003906 8.0391zm-27.965-4.0195c0-8.6133-7.0117-15.625-15.625-15.625s-15.625 7.0117-15.625 15.625 7.0117 15.625 15.625 15.625 15.625-7.0117 15.625-15.625z" fill="#3b6af9"/>
</svg>
