<?xml version="1.0" encoding="UTF-8"?>
<svg width="100pt" height="100pt" version="1.1" viewBox="0 0 100 100" xmlns="http://www.w3.org/2000/svg">
 <path d="m16.668 37.5h-8.3359v-25c0-2.3008 1.8672-4.168 4.168-4.168h25v8.3359h-20.832zm75-25c0-1.1055-0.44141-2.1641-1.2227-2.9453s-1.8398-1.2227-2.9453-1.2227h-25v8.3359h20.832v20.832h8.332zm0 75v-25h-8.3359v20.832h-20.832v8.332h25v0.003907c1.1055 0 2.1641-0.44141 2.9453-1.2227s1.2227-1.8398 1.2227-2.9453zm-54.168-4.168h-20.832v-20.832h-8.3359v25c0 1.1055 0.44141 2.1641 1.2227 2.9453s1.8398 1.2227 2.9453 1.2227h25zm33.332-33.332c0-5.5234-2.1953-10.824-6.1016-14.73s-9.207-6.1016-14.73-6.1016-10.824 2.1953-14.73 6.1016-6.1016 9.207-6.1016 14.73 2.1953 10.824 6.1016 14.73 9.207 6.1016 14.73 6.1016c5.5234-0.003906 10.82-2.2031 14.723-6.1094 3.9062-3.9023 6.1055-9.1992 6.1094-14.723zm-8.332 0c0 5.0547-3.0469 9.6133-7.7148 11.547-4.6719 1.9375-10.051 0.86719-13.625-2.707-3.5742-3.5742-4.6445-8.9531-2.707-13.625 1.9336-4.668 6.4922-7.7148 11.547-7.7148 6.9023 0.007812 12.492 5.5977 12.5 12.5z" fill="#3b6af9"/>
</svg>
