<?xml version="1.0" encoding="UTF-8"?>
<svg width="100pt" height="100pt" version="1.1" viewBox="0 0 100 100" xmlns="http://www.w3.org/2000/svg">
 <path d="m95.859 29.633-28.664-28.668c-0.28906-0.29297-0.68359-0.45312-1.0938-0.45312h-32.469c-7.5586 0-13.707 6.1484-13.707 13.707v27.125h-12.027c-2.3242 0-4.2148 1.8906-4.2148 4.2148v24.227c0 2.3242 1.8906 4.2148 4.2148 4.2148l12.031-0.003906v11.789c0 7.5586 6.1484 13.707 13.707 13.707h48.973c7.5586 0 13.707-6.1484 13.707-13.707l-0.003906-55.059c0-0.41016-0.16016-0.80078-0.45312-1.0938zm-28.211-23.848 23.391 23.395h-21.844c-0.85156 0-1.543-0.69531-1.543-1.5508zm-60.871 63.996v-24.227c0-0.62109 0.50391-1.125 1.125-1.125l66.035 0.003906c0.62109 0 1.125 0.50391 1.125 1.125v24.227c0 0.62109-0.50391 1.125-1.125 1.125l-66.039-0.003906c-0.61719 0-1.1211-0.50391-1.1211-1.125zm75.832 26.617h-48.977c-5.8516 0-10.613-4.7617-10.613-10.613v-11.789h50.918c2.3242 0 4.2148-1.8906 4.2148-4.2148v-24.227c0-2.3242-1.8906-4.2148-4.2148-4.2148l-50.918 0.003906v-27.129c0-5.8516 4.7617-10.613 10.613-10.613h30.922v24.031c0 2.5586 2.0781 4.6406 4.6367 4.6406h24.031v53.512c0 5.8516-4.7617 10.613-10.613 10.613zm-50.453-30.434c0 0.85156-0.69141 1.5469-1.5469 1.5469h-9.9609c-0.85156 0-1.5469-0.69141-1.5469-1.5469v-16.59c0-0.85156 0.69141-1.5469 1.5469-1.5469 0.85156 0 1.5469 0.69141 1.5469 1.5469v15.043h8.418c0.85156 0 1.543 0.69141 1.543 1.5469zm20.621-13.859v11.129c0 0.65234 0.53125 1.1836 1.1836 1.1836h4.5039c0.65234 0 1.1836-0.53125 1.1836-1.1836v-3.2539h-3.4375c-0.85156 0-1.5469-0.69141-1.5469-1.5469 0-0.85547 0.69141-1.5469 1.5469-1.5469h4.9805c0.85156 0 1.5469 0.69141 1.5469 1.5469v4.8008c0 2.3555-1.918 4.2734-4.2734 4.2734h-4.5039c-2.3555 0-4.2734-1.918-4.2734-4.2734l-0.003906-11.129c0-2.3555 1.918-4.2734 4.2734-4.2734h4.5039c2.3555 0 4.2734 1.918 4.2734 4.2734 0 0.85156-0.69141 1.5469-1.5469 1.5469-0.85156 0-1.5469-0.69141-1.5469-1.5469 0-0.65234-0.53125-1.1836-1.1836-1.1836h-4.4961c-0.65234 0-1.1836 0.53125-1.1836 1.1836zm-13.043-4.2773c-3.5977 0-6.5273 2.9258-6.5273 6.5273v6.6211c0 3.6016 2.9258 6.5312 6.5273 6.5312 3.5977 0 6.5273-2.9297 6.5273-6.5312v-6.6211c0-3.5977-2.9297-6.5273-6.5273-6.5273zm3.4336 13.148c0 1.8984-1.5391 3.4414-3.4375 3.4414-1.8945 0-3.4375-1.543-3.4375-3.4414v-6.6211c0-1.8945 1.5391-3.4375 3.4375-3.4375 1.8945 0 3.4375 1.5391 3.4375 3.4375z" fill="#3b6af9"/>
</svg>
