<?xml version="1.0" encoding="UTF-8"?>
<svg width="100pt" height="100pt" version="1.1" viewBox="0 0 100 100" xmlns="http://www.w3.org/2000/svg">
 <path d="m12.5 25c0-3.4531 2.7969-6.25 6.25-6.25h62.5c3.4531 0 6.25 2.7969 6.25 6.25s-2.7969 6.25-6.25 6.25h-62.5c-3.4531 0-6.25-2.7969-6.25-6.25zm68.75 18.75h-62.5c-3.4531 0-6.25 2.7969-6.25 6.25s2.7969 6.25 6.25 6.25h62.5c3.4531 0 6.25-2.7969 6.25-6.25s-2.7969-6.25-6.25-6.25zm0 25h-62.5c-3.4531 0-6.25 2.7969-6.25 6.25s2.7969 6.25 6.25 6.25h62.5c3.4531 0 6.25-2.7969 6.25-6.25s-2.7969-6.25-6.25-6.25z" fill="#3b6af9"/>
</svg>
