<?xml version="1.0" encoding="UTF-8"?>
<svg width="1200pt" height="1200pt" version="1.1" viewBox="0 0 1200 1200" xmlns="http://www.w3.org/2000/svg">
 <g fill="#3b6af9" fill-rule="evenodd">
  <path d="m806.9 618.88c28.414-42.836 41.578-90.574 41.578-137.46 0-41.062-10.051-81.402-28.758-117.19-18.691-35.758-46.043-67.031-80.652-89.992-38.078-25.262-85.047-40.445-139.07-40.445-54.02 0-100.99 15.188-139.07 40.445-34.609 22.961-61.957 54.234-80.652 89.992-18.707 35.785-28.758 76.125-28.758 117.19 0 46.652 13.035 94.148 41.156 136.82 0.27344 0.35938 0.52734 0.73828 0.76562 1.1367l-0.035156 0.019531 206.59 346.82 206.08-345.96c0.23438-0.47266 0.49609-0.9375 0.79688-1.3867l0.023437 0.015625zm-133.12-106.9c-18.883 18.883-44.969 30.562-73.781 30.562s-54.898-11.68-73.781-30.562c-18.883-18.883-30.562-44.969-30.562-73.781s11.68-54.898 30.562-73.781c18.883-18.883 44.969-30.562 73.781-30.562s54.898 11.68 73.781 30.562c18.883 18.883 30.562 44.969 30.562 73.781s-11.68 54.898-30.562 73.781z"/>
  <path d="m656.25 494.44c14.395-14.395 23.297-34.281 23.297-56.242 0-21.965-8.9023-41.852-23.297-56.242-14.395-14.395-34.277-23.297-56.242-23.297s-41.852 8.9023-56.242 23.297c-14.395 14.395-23.297 34.277-23.297 56.242 0 21.965 8.9023 41.852 23.297 56.242 14.395 14.395 34.277 23.297 56.242 23.297s41.852-8.9023 56.242-23.297z"/>
  <path d="m600 0c331.37 0 600 268.63 600 600s-268.63 600-600 600-600-268.63-600-600 268.63-600 600-600zm0 60.02c298.22 0 539.98 241.76 539.98 539.98 0 298.22-241.76 539.98-539.98 539.98-298.22 0-539.98-241.76-539.98-539.98 0-298.23 241.76-539.98 539.98-539.98z"/>
 </g>
</svg>
