<?xml version="1.0" encoding="UTF-8"?>
<svg width="1200pt" height="1200pt" version="1.1" viewBox="0 0 1200 1200" xmlns="http://www.w3.org/2000/svg">
 <g fill="#3b6af9">
  <path d="m700.65 642.71-106.41 139.97-168.73-128.18 106.37-140.01c4.6875-6.1875 3.5078-15-2.6992-19.707-6.1875-4.707-15-3.5078-19.707 2.6992l-106.35 139.99-64.406-48.918c-6.1875-4.707-15-3.4883-19.707 2.6992l-130.05 171.15c-12.695 16.707-18.113 37.352-15.281 58.145 2.8516 20.793 13.613 39.242 30.32 51.938l108.6 82.5-128.02 168.52c-4.6875 6.1875-3.5078 15.02 2.6992 19.727 2.5508 1.9297 5.5312 2.8516 8.4922 2.8516 4.2578 0 8.4375-1.9297 11.211-5.5508l128.04-168.54 108.62 82.52c13.82 10.52 30.32 16.031 47.363 16.031 3.5625 0 7.1797-0.24219 10.781-0.73047 20.773-2.832 39.227-13.613 51.918-30.32l130.05-171.15c4.6875-6.1875 3.4883-15.02-2.6992-19.727l-64.406-48.918 106.37-139.97c4.707-6.1875 3.5078-15.02-2.6797-19.707-6.168-4.707-14.98-3.5078-19.688 2.6797z"/>
  <path d="m1026.3 379.45c-2.832-20.793-13.613-39.227-30.301-51.918l-108.62-82.52 128.02-168.52c4.6875-6.1875 3.4883-15-2.6992-19.707-6.207-4.7266-15.02-3.4883-19.727 2.6992l-128.01 168.52-108.6-82.539c-16.742-12.695-37.352-18.168-58.164-15.281-20.773 2.832-39.227 13.613-51.938 30.32l-130.05 171.15c-4.6875 6.1875-3.5078 15 2.6992 19.707l342.36 260.08c2.5508 1.9297 5.5312 2.8672 8.4922 2.8672 4.2578 0 8.4375-1.9141 11.23-5.5508l130.05-171.15c12.676-16.723 18.094-37.367 15.246-58.16z"/>
 </g>
</svg>
