<?xml version="1.0" encoding="UTF-8"?>
<svg width="100pt" height="100pt" version="1.1" viewBox="0 0 100 100" xmlns="http://www.w3.org/2000/svg">
 <g fill="#3b6af9">
  <path d="m50 10.5c-10.477 0-20.523 4.1602-27.93 11.57-7.4102 7.4062-11.57 17.453-11.57 27.93s4.1602 20.523 11.57 27.93c7.4062 7.4102 17.453 11.57 27.93 11.57s20.523-4.1602 27.93-11.57c7.4102-7.4062 11.57-17.453 11.57-27.93s-4.1602-20.523-11.57-27.93c-7.4062-7.4102-17.453-11.57-27.93-11.57zm0 73c-8.8828 0-17.406-3.5312-23.688-9.8125s-9.8125-14.805-9.8125-23.688 3.5312-17.406 9.8125-23.688 14.805-9.8125 23.688-9.8125 17.406 3.5312 23.688 9.8125 9.8125 14.805 9.8125 23.688-3.5312 17.406-9.8125 23.688-14.805 9.8125-23.688 9.8125z"/>
  <path d="m62.398 47h-24.797c-1.6602 0-3 1.3438-3 3s1.3398 3 3 3h24.797c1.6602 0 3-1.3438 3-3s-1.3398-3-3-3z"/>
 </g>
</svg>
