<?xml version="1.0" encoding="UTF-8"?>
<svg width="100pt" height="100pt" version="1.1" viewBox="0 0 100 100" xmlns="http://www.w3.org/2000/svg">
 <g fill="#3b6af9">
  <path d="m86.668 3.332h-43.336c-5.5234 0-10 4.4766-10 10v20c0 1.8438 1.4922 3.3359 3.3359 3.3359 1.8398 0 3.332-1.4922 3.332-3.3359v-20c0-1.8398 1.4922-3.332 3.332-3.332h43.336c0.88281 0 1.7305 0.35156 2.3555 0.97656s0.97656 1.4727 0.97656 2.3555v73.336c0 0.88281-0.35156 1.7305-0.97656 2.3555s-1.4727 0.97656-2.3555 0.97656h-43.336c-1.8398 0-3.332-1.4922-3.332-3.332v-20c0-1.8438-1.4922-3.3359-3.332-3.3359-1.8438 0-3.3359 1.4922-3.3359 3.3359v20c0 5.5234 4.4766 10 10 10h43.336c5.5234 0 10-4.4766 10-10v-73.336c0-5.5234-4.4766-10-10-10z"/>
  <path d="m3.5898 48.727c-0.33594 0.81641-0.33594 1.7305 0 2.5469 0.16797 0.40625 0.41406 0.77734 0.72266 1.0859l16.668 16.668c0.62109 0.64062 1.4727 1.0078 2.3672 1.0156 0.89453 0.007812 1.7539-0.34375 2.3867-0.97656 0.63281-0.62891 0.98438-1.4922 0.97656-2.3828-0.007813-0.89453-0.375-1.75-1.0195-2.3711l-10.977-10.98h55.285c1.8398 0 3.332-1.4922 3.332-3.332s-1.4922-3.332-3.332-3.332h-55.285l10.977-10.977c1.2617-1.3086 1.2422-3.3867-0.042968-4.6758-1.2852-1.2852-3.3633-1.3008-4.6719-0.039063l-16.668 16.668c-0.30859 0.30859-0.55469 0.67578-0.71875 1.082z"/>
 </g>
</svg>
