<?xml version="1.0" encoding="UTF-8"?>
<svg width="100pt" height="100pt" version="1.1" viewBox="0 0 100 100" xmlns="http://www.w3.org/2000/svg">
 <g fill="#3b6af9">
  <path d="m88.578 50.738c-0.41406-9.9453-4.6055-19.246-11.812-26.188l-0.40625-0.38672-6.0664 6.0664 0.42188 0.40234c5.5898 5.3359 8.8828 12.492 9.2773 20.156 0.027343 0.51953 0.039062 1.043 0.039062 1.5586 0 7.4531-2.7617 14.605-7.7734 20.141-5.5469 6.1289-13.457 9.7266-21.699 9.8828l-0.23828 0.007812c-0.10937 0.003906-0.21484 0.007813-0.32422 0.007813-8.2656 0-15.98-3.3086-21.715-9.3164-5.3672-5.625-8.3203-12.98-8.3203-20.719 0-0.51562 0.015624-1.0391 0.042968-1.5586 0.41016-7.9648 3.9102-15.32 9.8555-20.703l0.44531-0.40234-6.0742-6.0703-0.40234 0.37109c-7.5742 6.9961-11.98 16.496-12.406 26.754-0.023437 0.53516-0.042969 1.0703-0.042969 1.6133 0 10.016 3.8438 19.523 10.82 26.766 7.3594 7.6406 17.23 11.852 27.797 11.852 0.11719 0 0.23047-0.003906 0.34375-0.007812l0.23438-0.007813c10.66-0.15625 20.527-4.5742 27.785-12.43 6.6094-7.1602 10.25-16.453 10.25-26.172 0.007813-0.54297-0.011719-1.082-0.03125-1.6172zm-11.055 27.012c-7.0391 7.625-16.613 11.91-26.961 12.059l-0.25781 0.007812c-0.10156 0.003906-0.20313 0.007813-0.30469 0.007813-10.25 0-19.828-4.0859-26.973-11.5-6.7695-7.0312-10.5-16.25-10.5-25.973 0-0.52344 0.019531-1.043 0.039062-1.5625 0.40234-9.7695 4.5312-18.832 11.637-25.586l4.4453 4.4492c-5.9023 5.5469-9.3711 13.008-9.7891 21.082-0.027344 0.54297-0.042969 1.082-0.042969 1.6172 0 8.0352 3.0664 15.672 8.6367 21.508 5.9531 6.2383 13.961 9.6719 22.543 9.6719 0.125 0 0.24219-0.003906 0.36328-0.007812l0.21875-0.007813c8.5547-0.15625 16.766-3.8945 22.523-10.258 5.2031-5.7461 8.0703-13.172 8.0703-20.91 0-0.53516-0.015625-1.0781-0.042969-1.6172-0.39844-7.7617-3.6641-15.023-9.2109-20.516l4.4492-4.4453c6.7461 6.6875 10.668 15.551 11.059 25.016 0.023438 0.51953 0.039063 1.0391 0.039063 1.5625 0.007812 9.4336-3.5273 18.453-9.9414 25.402z"/>
  <path d="m50 57.375c2.5117 0 4.5508-2.043 4.5508-4.5547v-39.238c0-2.5078-2.043-4.5508-4.5508-4.5508s-4.5508 2.043-4.5508 4.5508v39.238c0 2.5117 2.043 4.5547 4.5508 4.5547zm-3.4062-43.793c0-1.8789 1.5273-3.4102 3.4062-3.4102s3.4062 1.5312 3.4062 3.4102v39.238c0 1.8789-1.5273 3.4102-3.4062 3.4102s-3.4062-1.5312-3.4062-3.4102z"/>
 </g>
</svg>
