<?xml version="1.0" encoding="UTF-8"?>
<svg width="100pt" height="100pt" version="1.1" viewBox="0 0 100 100" xmlns="http://www.w3.org/2000/svg">
 <g fill="#3b6af9">
  <path d="m50 93.242c-12.027 0-23.332-4.6836-31.836-13.188-17.555-17.555-17.555-46.113 0-63.668 2.3125-2.3125 6.0625-2.3125 8.3789 0 2.3125 2.3125 2.3125 6.0625 0 8.3789-12.934 12.934-12.934 33.98 0 46.914 12.934 12.934 33.98 12.934 46.914 0 12.934-12.934 12.934-33.98 0-46.914-2.3125-2.3125-2.3125-6.0625 0-8.3789 2.3125-2.3125 6.0664-2.3125 8.3789 0 17.555 17.555 17.555 46.117 0 63.668-8.5039 8.5078-19.812 13.188-31.836 13.188z"/>
  <path d="m50 63.625c-3.2695 0-5.9258-2.6523-5.9258-5.9258v-45.02c0-3.2695 2.6523-5.9258 5.9258-5.9258s5.9258 2.6523 5.9258 5.9258v45.02c0 3.2734-2.6523 5.9258-5.9258 5.9258z"/>
 </g>
</svg>
