<?xml version="1.0" encoding="UTF-8"?>
<svg width="1200pt" height="1200pt" version="1.1" viewBox="0 0 1200 1200" xmlns="http://www.w3.org/2000/svg">
 <path d="m961.16 427.21c-12.238-85.34-49.969-164.99-108.25-228.52-58.277-63.527-134.39-107.97-218.35-127.51-83.969-19.535-171.88-13.254-252.22 18.02-80.336 31.277-149.36 86.09-198.01 157.26-48.656 71.168-74.676 155.38-74.66 241.59 0.019531 86.211 26.078 170.41 74.762 241.55l-34.512 267.96c-0.72266 5.5898 0.80078 11.238 4.2305 15.707 3.4297 4.4727 8.4883 7.4062 14.074 8.1602 5.5859 0.75 11.242-0.73438 15.73-4.1406l181.55-137.57v0.003906c36.008 15.793 74.047 26.477 113.01 31.746 59.703 73.227 162.01 121.55 278.25 121.55 27.574 0.019531 55.082-2.7578 82.098-8.2891l150.11 112.86c2.0273 1.5586 4.5117 2.4062 7.0703 2.4141 3.4336 0.007812 6.7031-1.4688 8.9648-4.0508s3.293-6.0195 2.832-9.4219l-22.586-167.16c64.633-49.406 105.05-119.48 105.05-197.25 0-87.078-50.641-164.5-129.25-214.06 5.6836-40.082 5.7148-80.762 0.089844-120.85zm85.957 334.91c0 61.648-31.281 119.51-88.086 162.93l-19.938 15.238 3.3594 24.867 12.543 92.832-90.164-67.789-15.57-11.711-19.086 3.9219c-24.156 4.9375-48.746 7.418-73.402 7.4062-160.1 0-290.34-102.14-290.34-227.7 0-125.55 130.25-227.7 290.34-227.7 160.09 0 290.34 102.14 290.34 227.7zm-290.34-270.9c-184.21 0-333.54 121.28-333.54 270.89v0.003906c0.085937 34.508 8.0625 68.539 23.32 99.488-21.801-5.2305-43.09-12.398-63.617-21.422l-23.254-10.246-20.254 15.348-140 106.08 27.852-216.25 2.1055-16.352-9.3242-13.602c-45.547-66.527-69.039-145.68-67.156-226.29 1.8789-80.602 29.035-158.58 77.629-222.91 48.598-64.332 116.18-111.77 193.2-135.61 77.02-23.844 159.58-22.887 236.03 2.7383 76.441 25.621 142.91 74.613 190 140.05 47.094 65.441 72.434 144.03 72.441 224.65-0.027343 12.754-0.69922 25.496-2.0195 38.18-51.348-23.156-107.07-35.012-163.4-34.758zm-101.49 270.9c0 11.137-4.4258 21.82-12.301 29.699-7.8789 7.875-18.562 12.301-29.699 12.301-11.141 0-21.824-4.4258-29.699-12.301-7.875-7.8789-12.301-18.562-12.301-29.699 0-11.141 4.4258-21.824 12.301-29.699s18.559-12.301 29.699-12.301c11.137 0 21.82 4.4258 29.699 12.301 7.875 7.875 12.301 18.559 12.301 29.699zm101.49-42c11.141 0 21.82 4.4258 29.699 12.301 7.875 7.875 12.301 18.559 12.301 29.699 0 11.137-4.4258 21.82-12.301 29.699-7.8789 7.875-18.559 12.301-29.699 12.301-11.141 0-21.82-4.4258-29.699-12.301-7.875-7.8789-12.301-18.562-12.301-29.699 0-11.141 4.4258-21.824 12.301-29.699 7.8789-7.875 18.559-12.301 29.699-12.301zm101.49 42c0-11.141 4.4258-21.824 12.305-29.699 7.875-7.875 18.559-12.301 29.695-12.301 11.141 0 21.824 4.4258 29.699 12.301 7.8789 7.875 12.301 18.559 12.301 29.699 0 11.137-4.4219 21.82-12.301 29.699-7.875 7.875-18.559 12.301-29.699 12.301-11.137 0-21.82-4.4258-29.695-12.301-7.8789-7.8789-12.305-18.562-12.305-29.699z" fill="#3b6af9"/>
</svg>
