<?xml version="1.0" encoding="UTF-8"?>
<svg width="100pt" height="100pt" version="1.1" viewBox="0 0 100 100" xmlns="http://www.w3.org/2000/svg">
 <path d="m38 17 1-1h22l1 1v6h-2v-5h-20v5h-2zm41 11h-58v-2h58zm-48.496 49.582-3.8594-47.25 1.9961-0.16406 3.8281 46.883 1.9453 1.9492h31.172l1.9453-1.9492 3.8281-46.883 1.9961 0.16406-3.8594 47.25-0.28906 0.625-2.5 2.5-0.70703 0.29297h-32l-0.70703-0.29297-2.5-2.5zm9-9.0156-2-30.5 1.9922-0.13281 2 30.5zm19-0.13281 2-30.5 1.9922 0.13281-2 30.5zm-9.5039-0.43359v-30h2v30z" fill="#3b69f9" fill-rule="evenodd"/>
</svg>
