<?xml version="1.0" encoding="UTF-8"?>
<svg width="100pt" height="100pt" version="1.1" viewBox="0 0 100 100" xmlns="http://www.w3.org/2000/svg">
 <g fill="#3b6af9">
  <path d="m64.5 40.199c0 8.0078-6.4922 14.5-14.5 14.5s-14.5-6.4922-14.5-14.5c0-8.0078 6.4922-14.5 14.5-14.5s14.5 6.4922 14.5 14.5"/>
  <path d="m50 5c-24.898 0-45 20.102-45 45 0 15 7.3008 28.199 18.602 36.398 0.60156 0.39844 1.1016 0.80078 1.6992 1.1992 0.60156 0.39844 1.1992 0.69922 1.8008 1.1016 0 0 0.10156 0 0.10156 0.10156 0.60156 0.30078 1.1992 0.69922 1.8008 1 0.10156 0 0.10156 0.10156 0.19922 0.10156 0.60156 0.30078 1.1992 0.60156 1.6992 0.89844 0.10156 0 0.19922 0.10156 0.19922 0.10156 0.60156 0.30078 1.1016 0.5 1.6992 0.80078 0.10156 0 0.19922 0.10156 0.30078 0.10156 0.5 0.19922 1.1016 0.39844 1.6992 0.60156 0.19922 0.10156 0.30078 0.10156 0.5 0.19922 0.5 0.19922 1.1016 0.39844 1.6016 0.5 0.19922 0.10156 0.39844 0.10156 0.60156 0.19922 0.5 0.10156 1 0.30078 1.5 0.39844 0.19922 0.10156 0.5 0.10156 0.69922 0.19922 0.5 0.10156 0.89844 0.19922 1.3984 0.30078 0.30078 0.10156 0.60156 0.10156 0.89844 0.19922 0.39844 0.10156 0.89844 0.19922 1.3008 0.19922 0.39844 0.10156 0.69922 0.10156 1.1016 0.10156 0.39844 0 0.80078 0.10156 1.1992 0.10156 0.39844 0 0.89844 0.10156 1.3008 0.10156 0.30078 0 0.60156 0.10156 0.89844 0.10156 0.80078 0 1.5 0.10156 2.3008 0.10156 0.80078 0 1.6016 0 2.3008-0.10156h0.60156c0.60156 0 1.1016-0.10156 1.6992-0.10156 0.19922 0 0.5-0.10156 0.69922-0.10156 0.5-0.10156 1.1016-0.10156 1.6016-0.19922 0.19922 0 0.39844-0.10156 0.60156-0.10156 0.5-0.10156 1.1016-0.19922 1.6016-0.30078 0.19922 0 0.39844-0.10156 0.60156-0.10156 0.5-0.10156 1.1016-0.19922 1.6016-0.39844 0.19922 0 0.30078-0.10156 0.5-0.10156 0.60156-0.19922 1.1016-0.30078 1.6992-0.5 0.10156 0 0.30078-0.10156 0.39844-0.10156 0.60156-0.19922 1.1992-0.39844 1.6992-0.60156 0.10156 0 0.19922-0.10156 0.30078-0.10156 0.60156-0.19922 1.1992-0.5 1.8008-0.69922 0.10156 0 0.10156-0.10156 0.19922-0.10156 0.60156-0.30078 1.1992-0.5 1.8008-0.80078 0.10156 0 0.10156-0.10156 0.19922-0.10156 0.60156-0.30078 1.1992-0.60156 1.8008-1 0 0 0.10156 0 0.10156-0.10156 0.60156-0.30078 1.1992-0.69922 1.8008-1.1016 0.60156-0.39844 1.1992-0.80078 1.8008-1.1992 11.789-8.293 19.488-21.793 19.488-37.191 0-24.898-20.102-45-45-45zm31.602 69.398c-0.89844-8.5-7.1016-15.5-15.602-17.199-2.8984-0.60156-6-1-9.3008-1.3008-2 0.80078-4.1016 1.3008-6.3984 1.3008-2.1992 0-4.3984-0.39844-6.3008-1.1992-3.1992 0.30078-6.1016 0.69922-8.8984 1.1992-8.6992 1.6992-15.102 9.1992-15.602 18v0.60156c-5.8984-7-9.5-16-9.5-25.801 0-22.102 17.898-40 40-40s40 17.898 40 40c0 9.1992-3.1016 17.699-8.3984 24.398z"/>
 </g>
</svg>
