<?xml version="1.0" encoding="UTF-8"?>
<svg width="100pt" height="100pt" version="1.1" viewBox="0 0 100 100" xmlns="http://www.w3.org/2000/svg">
 <g fill="#3b6af9">
  <path d="m79.168 12.5h-58.336c-6.8984 0.007812-12.492 5.5977-12.5 12.5v37.5c0.007813 6.9023 5.6016 12.492 12.5 12.5h44.375l19.691 15.754c1.2539 1 2.9648 1.1914 4.4062 0.5 1.4414-0.69531 2.3594-2.1523 2.3633-3.7539v-20.191c0-0.058594-0.03125-0.10156-0.03125-0.16016-0.003907-0.058594 0.03125-0.10156 0.03125-0.16016v-41.988c-0.007813-6.9023-5.6016-12.492-12.5-12.5zm4.168 66.332-14.066-11.25c-0.15234-0.09375-0.3125-0.17578-0.47656-0.25-0.47656-0.33203-1.0352-0.52734-1.6133-0.5625-0.16797-0.046875-0.33984-0.078125-0.51172-0.10156h-45.836c-2.2969-0.003907-4.1641-1.8672-4.1641-4.168v-37.5c0-2.3008 1.8672-4.1641 4.1641-4.168h58.336c2.2969 0.003907 4.1641 1.8672 4.1641 4.168v41.988c0 0.058594 0.03125 0.10156 0.03125 0.16016 0.003907 0.054687-0.03125 0.10156-0.03125 0.16016z"/>
  <path d="m56.262 43.738c0 3.4609-2.8047 6.2617-6.2617 6.2617s-6.2617-2.8008-6.2617-6.2617c0-3.457 2.8047-6.2578 6.2617-6.2578s6.2617 2.8008 6.2617 6.2578"/>
  <path d="m74.98 43.762c0 3.457-2.8047 6.2578-6.2617 6.2578s-6.2578-2.8008-6.2578-6.2578c0-3.4609 2.8008-6.2617 6.2578-6.2617s6.2617 2.8008 6.2617 6.2617"/>
  <path d="m37.5 43.75c0 3.4531-2.7969 6.25-6.25 6.25s-6.25-2.7969-6.25-6.25 2.7969-6.25 6.25-6.25 6.25 2.7969 6.25 6.25"/>
 </g>
</svg>
