<?xml version="1.0" encoding="UTF-8"?>
<svg width="100pt" height="100pt" version="1.1" viewBox="0 0 100 100" xmlns="http://www.w3.org/2000/svg">
 <g fill="#3b6af9">
  <path d="m79.801 31.5c1.3984-1.3984 1.3984-3.6016 0-4.8984-1.3984-1.3984-3.6016-1.3984-4.8984 0l-16.504 16.398 4.8984 4.8984z"/>
  <path d="m79.801 72.5-20.5-20.5-4.9023-5-7.1992-7.1992c1.1016-1.8984 1.6992-4.1016 1.6992-6.1992 0.10156-3.5-1.1992-7-3.8984-9.6992-2.5-2.5-5.8008-3.8984-9.3984-3.8984-3.6016 0-6.8984 1.3984-9.3984 3.8984-5.1992 5.1992-5.1992 13.602 0 18.801 2.5 2.5 5.8008 3.8984 9.3984 3.8984 2.3984 0 4.6016-0.60156 6.6016-1.8008l7.1992 7.1992-7.1992 7.1992c-2-1.1016-4.1992-1.8008-6.6016-1.8008-3.5 0-6.8984 1.3984-9.3984 3.8984-5.1992 5.1992-5.1992 13.602 0 18.801 2.5 2.5 5.8008 3.8984 9.3984 3.8984 3.6016 0 6.8984-1.3984 9.3984-3.8984 4.3008-4.3008 5-10.898 2.1016-16l7.1992-7.1992 20.5 20.5c0.69922 0.69922 1.6016 1 2.5 1 0.89844 0 1.8008-0.30078 2.5-1 0.80078-0.80078 1.1016-1.8008 1-2.8984-0.10156-0.69922-0.40234-1.3984-1-2zm-39.699 2.6016c-2.3984 2.3984-6.5 2.3984-8.8984 0-2.5-2.5-2.5-6.3984 0-8.8984 1.1992-1.1992 2.8008-1.8008 4.3984-1.8008 1.6016 0 3.1992 0.69922 4.3984 1.8008 2.5 2.4961 2.5 6.4961 0.10156 8.8984zm-8.9023-37.402c-2.5-2.5-2.5-6.3984 0-8.8984 1.1992-1.1992 2.8008-1.8008 4.3984-1.8008 1.6016 0 3.1992 0.69922 4.3984 1.8008 2.3984 2.5 2.3984 6.3984 0 8.8984-2.2969 2.4023-6.3945 2.4023-8.7969 0z"/>
 </g>
</svg>
