<?xml version="1.0" encoding="UTF-8"?>
<svg width="100pt" height="100pt" version="1.1" viewBox="0 0 100 100" xmlns="http://www.w3.org/2000/svg">
 <path d="m93.586 45.98c-7.1211-15.594-24.23-25.668-43.586-25.668-19.359 0-36.469 10.074-43.586 25.668-1.168 2.5547-1.168 5.4844 0 8.043 7.1172 15.59 24.227 25.664 43.586 25.664 19.355 0 36.465-10.074 43.59-25.668 1.1602-2.5547 1.1602-5.4844-0.003906-8.0391zm-5.6836 5.4414c-6.0156 13.168-21.246 22.016-37.902 22.016-16.66 0-31.891-8.8477-37.902-22.016-0.41406-0.90625-0.41406-1.9414 0-2.8477 6.0117-13.164 21.242-22.012 37.902-22.012 16.656 0 31.887 8.8477 37.898 22.012 0.41797 0.90625 0.41797 1.9453 0.003906 2.8477zm-37.902-17.047c-8.6133 0-15.625 7.0117-15.625 15.625s7.0117 15.625 15.625 15.625 15.625-7.0117 15.625-15.625-7.0117-15.625-15.625-15.625zm0 25c-5.168 0-9.375-4.207-9.375-9.375s4.207-9.375 9.375-9.375 9.375 4.207 9.375 9.375-4.207 9.375-9.375 9.375z" fill="#3b6af9"/>
</svg>
