<?xml version="1.0" encoding="UTF-8"?>
<svg width="1200pt" height="1200pt" version="1.1" viewBox="0 0 1200 1200" xmlns="http://www.w3.org/2000/svg">
 <path d="m841.05 172.34c-4.7383 0.33594-8.7969 5.0508-8.4609 9.7695v119.22c-0.33594 0-0.33594 0.33594-0.68359 0.33594l-27.781 27.613v-100.36c0-5.3867-5.4102-10.105-10.836-9.4336-4.4023 0.67187-8.4727 5.0508-8.1367 9.4336v119.54l-25.066 24.926v-100.01c0-5.7227-5.4258-10.777-10.836-10.105-4.7539 0.67188-8.4727 5.3867-8.4727 10.105v105.41c-71.148-63.984-160.92-96.312-251.03-96.312-95.867 0-191.75 36.707-264.93 109.12-146.35 145.49-146.35 381.54 0 527.02 146.35 145.49 383.84 145.49 530.18 0 63.012-62.641 98.93-142.45 107.73-224.28 0.33594-5.0508-3.7305-9.7578-8.7969-10.43-4.7539-0.33594-9.8281 3.707-10.5 8.7461-8.1367 77.785-42.012 152.88-101.98 212.5-139.25 138.41-364.19 138.41-503.09 0-139.23-138.07-139.23-361.68 0-500.09 136.52-135.72 356.73-138.07 496.31-6.3945l-80.965 80.484c-46.414-42.434-105.02-63.648-163.98-63.648-61.656 0-123.31 23.23-170.4 70.043-94.188 93.625-94.188 245.5 0 339.12 94.176 93.613 246.97 93.613 341.15 0 37.262-37.043 59.965-83.52 67.754-131.69 1.3438-5.0508-2.7227-10.766-7.7891-11.773-5.0898-0.68359-10.5 3.3594-11.184 8.7461-7.1172 44.449-27.781 87.227-62.34 121.57-86.723 86.219-227.32 86.219-314.38 0-86.734-86.555-86.734-226.3 0-312.5 84.695-84.191 220.2-86.207 307.61-6.7305l-83.004 82.836c-19.645-16.164-43.367-24.254-67.414-24.254-26.762 0-53.52 10.105-73.848 30.312-40.992 40.738-40.992 107.07 0 147.83 40.656 40.414 107.39 40.414 148.38 0 10.164-10.105 17.617-21.551 22.703-34.008 2.375-4.7148 0-11.113-4.7383-13.141-5.0898-2.0156-11.52 1.0078-12.875 6.0586-4.4023 10.117-10.5 19.199-18.973 27.625-33.539 33.336-87.742 33.336-121.29 0-33.539-33.336-33.539-87.227 0-120.55 31.5-31.32 80.293-33.336 114.17-6.3945l-37.598 37.379c-4.7539-2.3516-9.8281-4.043-15.59-4.043-18.289 0-33.539 15.156-33.539 33.336s15.254 33 33.539 33c14.902 0 27.445-10.105 31.5-23.566h332.69l84.695 84.191c3.3828 3.707 9.8164 3.707 13.547 0.33594 3.7305-3.3711 3.7305-10.117 0-13.477l-71.148-71.051h35.578l84.695 84.191c3.3828 4.3672 10.5 4.7148 14.23 1.0078 3.7305-3.707 3.3828-10.777-0.67187-14.148l-71.148-71.051h39.973l84.695 84.191c3.3828 3.707 9.8281 3.707 13.559 0.33594 3.3828-3.3711 3.7305-10.117 0-13.477l-80.977-80.484 80.977-80.484c5.7461-5.3867 0.67188-16.836-7.1289-16.5-2.3633 0.33594-4.7383 1.3438-6.4336 3.0352l-85.031 84.516h-0.68359-38.953l71.148-71.039c5.4102-5.3867 0.67188-16.5-7.1289-16.5-2.3633 0.33594-4.7383 1.3438-6.4336 3.0352l-84.695 84.516h-35.578l71.148-71.039c5.7617-5.3867 0.68359-16.836-7.1172-16.5-2.3633 0.33594-4.7383 1.3438-6.4336 3.0352l-74.867 74.41c-3.3828-66.672-24.73-132.34-63.695-189.59-3.7305-5.3867-7.4531-10.777-11.52-15.828-2.0273-2.6875-5.7461-4.3789-9.1445-3.707-6.7695 1.0078-10.5 10.105-6.1094 15.492 3.7305 4.7148 7.4531 9.7695 10.836 14.82 38.965 56.914 59.293 122.58 61.32 188.91h-114.84c-1.7031-42.422-14.23-83.844-38.281-120.89-2.0273-3.0352-6.0977-5.0508-9.8164-4.3789-6.1094 1.3438-9.8281 9.4336-6.4336 14.484 22.02 33.672 33.539 72.07 35.23 110.79h-117.23c-0.68359-5.375-1.3438-10.766-2.7109-15.816-1.0195-4.3789-5.4258-7.7539-9.8164-7.4141-5.7617 0.33594-10.5 6.7422-8.8086 12.133 1.0195 3.707 1.7031 7.4023 2.0273 11.113h-53.52c-0.68359-2.3516-1.3555-4.3672-2.375-6.3945l43.367-43.441 2.0273-1.3438c0.33594-0.33594 0.68359-1.0078 1.0078-1.6914l91.812-90.926h0.33594c2.7109-1.0078 4.7383-3.0234 5.7461-5.7227v-0.33594l88.414-87.898h0.33594c1.3555-0.67188 2.3633-1.3438 3.3828-2.3516h118.23c5.0898 0 9.8281-4.3789 9.8281-9.4336 0-5.0508-4.7539-9.7695-9.8281-9.4336l-100.24 0.003906 25.078-25.246h119.91c5.0898 0.33594 9.4922-4.3789 9.4922-9.4336 0-5.0508-4.4023-9.4336-9.4922-9.4336h-100.62l27.445-27.277c0.33594-0.33594 0.68359-0.67188 0.68359-1.0078h119.59c5.0742 0 9.8164-4.3789 9.8164-9.4336 0-5.0508-4.7539-9.4336-9.8164-9.4336h-114.18v-113.5c0.33594-5.418-5.0742-10.469-10.5-9.7969z" fill="#3b6af9"/>
</svg>
