<?xml version="1.0" encoding="UTF-8"?>
<svg width="100pt" height="100pt" version="1.1" viewBox="0 0 100 100" xmlns="http://www.w3.org/2000/svg">
 <g fill="#3b69f9">
  <path d="m48.43 0c6.4453-0.09375 12.84 1.1328 18.789 3.6094 5.0391 2.0195 9.3125 5.5781 12.211 10.172 3.5234 5.7031 4.5352 12.613 2.7891 19.09-1.1016 4.4609-3.8008 8.0508-7 11.262v-0.003906c-2.6719 2.5273-5.5273 4.8516-8.5469 6.9492-2.1914 1.6016-4.3281 3.2812-6.4609 5-1.4453 1.2422-2.5508 2.8281-3.2109 4.6133-0.53906 1.2734-1.0742 2.5508-1.6016 3.8281-1.1992 3.082-3.6172 4.4805-6.7891 4.6797-1.9414 0.25781-3.9141-0.13281-5.6094-1.1094-2.8047-1.7539-4.4219-4.9062-4.2109-8.2109 0.10938-4.0156 1.7148-7.8438 4.5-10.738 3.0898-3.5117 6.9102-6.1719 10.531-9.0586v-0.003906c2.8086-2.0352 5.2305-4.5586 7.1484-7.4492 2.6289-4.3516 1.8086-11.5-2.6719-14.672l0.003906 0.003907c-1.6211-1.1406-3.4766-1.8945-5.4297-2.2109-2.9766-0.55469-6.0469-0.38672-8.9414 0.5-3.3594 1.0586-5.5117 3.5-7.0898 6.5391-1.1484 2.2188-2.1797 4.5195-3.5 6.6406-2.2188 3.5781-5.9297 4.3594-9.6602 3.6797-1.6289-0.25391-3.1406-0.98828-4.3516-2.1094-1.6172-1.5898-2.4688-3.8047-2.3281-6.0703 0.058594-3.8633 1.2734-7.6211 3.4883-10.789 3.7227-5.3477 9.0078-9.4141 15.133-11.641 4.0898-1.5742 8.4258-2.4219 12.809-2.5z"/>
  <path d="m58.148 89.191c0 5.9688-4.8398 10.809-10.809 10.809s-10.809-4.8398-10.809-10.809c0-5.9727 4.8398-10.812 10.809-10.812s10.809 4.8398 10.809 10.812"/>
 </g>
</svg>
