<?xml version="1.0" encoding="UTF-8"?>
<svg width="100pt" height="100pt" version="1.1" viewBox="0 0 100 100" xmlns="http://www.w3.org/2000/svg">
 <path d="m89.395 100h-24.242c-0.83594 0-1.5156-0.67969-1.5156-1.5156v-45.453c0-0.83594 0.67969-1.5156 1.5156-1.5156h24.242c0.83594 0 1.5156 0.67969 1.5156 1.5156v45.453c0 0.83594-0.67969 1.5156-1.5156 1.5156zm-1.5156-3.0312v-42.422h-21.211v42.422zm-53.031 3.0312h-24.242c-0.83594 0-1.5156-0.67969-1.5156-1.5156v-30.301c0-0.83984 0.67969-1.5156 1.5156-1.5156h24.242c0.83594 0 1.5156 0.67578 1.5156 1.5156v30.301c0 0.83594-0.67969 1.5156-1.5156 1.5156zm-1.5156-3.0312v-27.273h-21.211v27.273zm-12.121-44.566v-23.613c0-15.898 12.891-28.789 28.789-28.789s28.789 12.891 28.789 28.789v8.4609l4.9883-4.9883c0.58984-0.58984 1.5508-0.58984 2.1406 0 0.59375 0.59375 0.59375 1.5508 0 2.1445l-7.5742 7.5742c-0.58984 0.58984-1.5508 0.58984-2.1406 0l-7.5781-7.5742c-0.58984-0.59375-0.58984-1.5508 0-2.1445 0.59375-0.58984 1.5508-0.58984 2.1445 0l4.9883 4.9883v-8.4609c0-14.227-11.531-25.758-25.758-25.758s-25.758 11.531-25.758 25.758v23.613l4.9883-4.9883c0.59375-0.59375 1.5508-0.59375 2.1445 0 0.58984 0.58984 0.58984 1.5508 0 2.1406l-7.5781 7.5781c-0.58984 0.58984-1.5508 0.58984-2.1406 0l-7.5742-7.5781c-0.59375-0.58984-0.59375-1.5508 0-2.1406 0.58984-0.59375 1.5508-0.59375 2.1406 0z" fill="#3b6af9" fill-rule="evenodd"/>
</svg>
