<?xml version="1.0" encoding="UTF-8"?>
<svg width="100pt" height="100pt" version="1.1" viewBox="0 0 100 100" xmlns="http://www.w3.org/2000/svg">
 <g fill="#3b6af9">
  <path d="m71.875 50c-12.062 0-21.875 9.8125-21.875 21.875s9.8125 21.875 21.875 21.875 21.875-9.8125 21.875-21.875-9.8125-21.875-21.875-21.875zm0 37.5c-8.6133 0-15.625-7.0117-15.625-15.625s7.0117-15.625 15.625-15.625 15.625 7.0117 15.625 15.625-7.0117 15.625-15.625 15.625z"/>
  <path d="m50 28.125c0-12.062-9.8125-21.875-21.875-21.875s-21.875 9.8125-21.875 21.875 9.8125 21.875 21.875 21.875 21.875-9.8125 21.875-21.875zm-37.5 0c0-8.6133 7.0117-15.625 15.625-15.625s15.625 7.0117 15.625 15.625-7.0117 15.625-15.625 15.625-15.625-7.0117-15.625-15.625z"/>
  <path d="m39.711 63.414c-1.2188-1.2188-3.1992-1.2188-4.418 0s-1.2188 3.1992 0 4.418l0.91406 0.91797h-4.957v-15.625h-6.25v18.75c0 1.7266 1.3984 3.125 3.125 3.125h8.082l-0.91406 0.91406c-1.2188 1.2188-1.2188 3.1992 0 4.418 0.60938 0.61328 1.4062 0.91797 2.207 0.91797s1.5977-0.30469 2.2109-0.91406l6.25-6.25c1.2188-1.2188 1.2188-3.1992 0-4.418z"/>
  <path d="m68.75 36.207-0.91406-0.91406c-1.2188-1.2188-3.1992-1.2188-4.418 0s-1.2188 3.1992 0 4.418l6.25 6.25c0.60938 0.60937 1.4062 0.91406 2.207 0.91406s1.5977-0.30469 2.2109-0.91406l6.25-6.25c1.2188-1.2188 1.2188-3.1992 0-4.418s-3.1992-1.2188-4.418 0l-0.91797 0.91406v-8.082c0-1.7266-1.3984-3.125-3.125-3.125h-18.75v6.25h15.625z"/>
 </g>
</svg>
