<?xml version="1.0" encoding="UTF-8"?>
<svg width="100pt" height="100pt" version="1.1" viewBox="0 0 100 100" xmlns="http://www.w3.org/2000/svg">
 <path d="m19.738 57.531 0.17969 0.26172c0.21875 0.32812 0.44922 0.64844 0.67969 1l26.062 37.438c0.76172 1.0938 2.0078 1.7422 3.3398 1.7422s2.5781-0.64844 3.3398-1.7422l26-37.41c0.25-0.35156 0.48828-0.69141 0.73047-1l0.16016-0.23828v-0.003906c4.707-7.2812 6.625-16.016 5.4062-24.602-1.2188-8.5859-5.4961-16.441-12.043-22.125-6.5469-5.6836-14.93-8.8125-23.598-8.8125-8.6719 0-17.051 3.1289-23.598 8.8125-6.5508 5.6836-10.828 13.539-12.047 22.125-1.2188 8.5859 0.70313 17.32 5.4102 24.602zm30.262-34.473c3.9766 0 7.793 1.582 10.605 4.3945s4.3945 6.6289 4.3945 10.605c0 3.9805-1.582 7.7969-4.3945 10.609s-6.6289 4.3906-10.605 4.3906-7.793-1.5781-10.605-4.3906-4.3945-6.6289-4.3945-10.609c0-3.9766 1.582-7.793 4.3945-10.605s6.6289-4.3945 10.605-4.3945z" fill="#3b6af9"/>
</svg>
