<?xml version="1.0" encoding="UTF-8"?>
<svg width="1200pt" height="1200pt" version="1.1" viewBox="0 0 1200 1200" xmlns="http://www.w3.org/2000/svg">
 <g fill="#3b6af9">
  <path d="m787.5 318.75c0-103.39-84.113-187.5-187.5-187.5s-187.5 84.113-187.5 187.5 84.113 187.5 187.5 187.5 187.5-84.113 187.5-187.5zm-337.5 0c0-82.707 67.293-150 150-150s150 67.293 150 150-67.293 150-150 150-150-67.293-150-150z"/>
  <path d="m1179.6 1154.7-187.5-412.5c-3.0391-6.6953-9.6953-10.988-17.062-10.988h-291.92l43.18-140.36c105.84-49.125 173.74-154.99 173.74-272.14 0-165.41-134.59-300-300-300s-300 134.59-300 300c0 117.15 67.895 223.01 173.74 272.14l43.18 140.36h-273.17c-7.1055 0-13.594 4.0117-16.781 10.367l-206.25 412.5c-2.9062 5.8125-2.6055 12.711 0.82422 18.242 3.4336 5.5352 9.4492 8.8906 15.957 8.8906h1125c6.375 0 12.301-3.2422 15.77-8.6055 3.4297-5.3438 3.9375-12.094 1.293-17.906zm-156.7-254.12-121.91 121.91-169.7-149.74v-104.04h231.68zm-647.87 74.383c9.0547 0 16.82-6.4883 18.43-15.395l8.0234-44.117 228.29 228.26h-344.78l30.676-168.75zm417.58 1.9141-153.7 122.96-29.551-29.551 151.63-121.31zm-127.01 149.64 155.57-124.45 160.54 141.64h-298.91zm-169.03-566.55c-96.621-41.496-159.04-136.18-159.04-241.26 0-144.75 117.75-262.5 262.5-262.5s262.5 117.75 262.5 262.5c0 105.07-62.418 199.76-159.04 241.26-5.0625 2.1758-8.9062 6.4492-10.539 11.719l-92.922 302.02-92.926-302.01c-1.6289-5.2852-5.4727-9.5625-10.535-11.734zm85.535 383c2.4375 7.875 9.6953 13.238 17.926 13.238s15.508-5.3633 17.926-13.238l53.625-174.26h22.199v112.5c0 5.3828 2.3047 10.5 6.3555 14.062l32.289 28.5-149.76 119.81-173.01-173.01 18.508-101.87h100.31zm-326.74-174.26h134.7l-30.695 168.75h-188.38zm-103.12 206.25h125.32l-30.676 168.75h-179.02zm886.12 168.75-109.2-96.355 110.32-110.32 93.922 206.68z"/>
 </g>
</svg>
