<?xml version="1.0" encoding="UTF-8"?>
<svg width="1200pt" height="1200pt" version="1.1" viewBox="0 0 1200 1200" xmlns="http://www.w3.org/2000/svg">
 <g fill="#3b6af9">
  <path d="m588.91 988.6-215.66-362.05-0.30078-0.46094-0.011718 0.007812-0.13672-0.23828c-30.828-46.781-45.117-98.809-45.117-149.89 0-44.785 11.027-88.91 31.555-128.17 20.539-39.289 50.574-73.641 88.578-98.852 41.855-27.766 93.277-44.457 152.2-44.457s110.34 16.691 152.2 44.457c38.004 25.211 68.039 59.562 88.578 98.852 20.523 39.262 31.555 83.387 31.555 128.17 0 51.328-14.43 103.62-45.574 150.58l-0.023437 0.042969 0.019531 0.015625c-0.070313 0.10547-0.14062 0.21094-0.21484 0.3125l-215.95 362.54 0.035157 0.019531c-3.4922 5.8633-11.078 7.7852-16.945 4.293-2.1367-1.2734-3.75-3.0898-4.7695-5.168zm-194.77-375.13 205.87 345.61 205.36-344.75c0.23438-0.47266 0.49609-0.93359 0.79297-1.3828l0.023437 0.015625c28.316-42.688 41.434-90.258 41.434-136.98 0-40.918-10.016-81.117-28.656-116.78-18.629-35.633-45.883-66.797-80.371-89.68-37.945-25.172-84.75-40.305-138.58-40.305s-100.64 15.133-138.58 40.305c-34.488 22.879-61.742 54.047-80.371 89.676-18.641 35.656-28.656 75.859-28.656 116.78 0 46.492 12.988 93.82 41.016 136.34 0.26953 0.35938 0.52344 0.73828 0.76172 1.1328z"/>
  <path d="m600 328.92c28.711 0 54.707 11.641 73.523 30.457 18.816 18.816 30.457 44.812 30.457 73.523 0 28.711-11.641 54.707-30.457 73.523-18.816 18.816-44.812 30.457-73.523 30.457s-54.707-11.641-73.523-30.457c-18.816-18.816-30.457-44.812-30.457-73.523 0-28.711 11.641-54.707 30.457-73.523 18.816-18.816 44.812-30.457 73.523-30.457zm56.047 47.934c-14.344-14.344-34.16-23.215-56.047-23.215s-41.703 8.8711-56.047 23.215-23.215 34.16-23.215 56.047c0 21.887 8.8711 41.703 23.215 56.047s34.16 23.215 56.047 23.215 41.703-8.8711 56.047-23.215 23.215-34.16 23.215-56.047c0-21.887-8.8711-41.703-23.215-56.047z"/>
  <path d="m600 0c331.37 0 600 268.63 600 600s-268.63 600-600 600-600-268.63-600-600 268.63-600 600-600zm0 29.297c315.19 0 570.7 255.51 570.7 570.7s-255.51 570.7-570.7 570.7-570.7-255.51-570.7-570.7 255.51-570.7 570.7-570.7z" fill-rule="evenodd"/>
 </g>
</svg>
