<?xml version="1.0" encoding="UTF-8"?>
<svg width="100pt" height="100pt" version="1.1" viewBox="0 0 100 100" xmlns="http://www.w3.org/2000/svg">
 <path d="m78.68 11.406c-15.855-15.207-41.504-15.207-57.359 0-14.656 14.059-15.996 36.492-3.0742 52.074l29.348 35.391c0.59375 0.71484 1.4766 1.1289 2.4062 1.1289s1.8125-0.41406 2.4062-1.1289l29.348-35.391c12.922-15.582 11.582-38.016-3.0742-52.074zm-53.031 4.5078c13.434-12.887 35.27-12.887 48.703 0 12.312 11.809 13.406 30.535 2.5898 43.578l-26.941 32.488-26.941-32.488c-10.816-13.043-9.7227-31.77 2.5898-43.578zm14.977 21.586c0-5.1797 4.1992-9.375 9.375-9.375 5.1797 0 9.375 4.1953 9.375 9.375s-4.1953 9.375-9.375 9.375c-5.1758 0-9.375-4.1953-9.375-9.375zm9.375-15.625c-8.6289 0-15.625 6.9961-15.625 15.625s6.9961 15.625 15.625 15.625 15.625-6.9961 15.625-15.625-6.9961-15.625-15.625-15.625z" fill="#3b6af9" fill-rule="evenodd"/>
</svg>
