<?xml version="1.0" encoding="UTF-8"?>
<svg width="100pt" height="100pt" version="1.1" viewBox="0 0 100 100" xmlns="http://www.w3.org/2000/svg">
 <path d="m50 6.4297c-24.027 0-43.57 19.543-43.57 43.57s19.547 43.57 43.57 43.57c24.027 0 43.57-19.547 43.57-43.57 0-24.027-19.543-43.57-43.57-43.57zm0 81.695c-21.023 0-38.125-17.102-38.125-38.125s17.102-38.125 38.125-38.125 38.125 17.102 38.125 38.125-17.102 38.125-38.125 38.125zm12.777-47.215c0 8.1133-4.0938 10.473-7.0859 12.195-2.5859 1.4883-4.1484 2.3906-4.1484 6.8828 0 1.5039-1.2188 2.7227-2.7227 2.7227-1.5039 0-2.7227-1.2188-2.7227-2.7227 0-7.6406 3.9727-9.9297 6.875-11.602 2.625-1.5117 4.3555-2.5117 4.3555-7.4766 0-4.043-3.2891-7.332-7.332-7.332-4.043 0-7.332 3.2891-7.332 7.332 0 1.5039-1.2188 2.7227-2.7227 2.7227s-2.7227-1.2188-2.7227-2.7227c0-7.043 5.7305-12.777 12.777-12.777s12.781 5.7305 12.781 12.777zm-11.402 27.215v1.0195c0 1.5039-1.2188 2.7227-2.7227 2.7227s-2.7227-1.2188-2.7227-2.7227v-1.0195c0-1.5039 1.2188-2.7227 2.7227-2.7227 1.5-0.003906 2.7227 1.2188 2.7227 2.7227z"/>
</svg>
