<?xml version="1.0" encoding="UTF-8"?>
<svg width="100pt" height="100pt" version="1.1" viewBox="0 0 100 100" xmlns="http://www.w3.org/2000/svg">
 <g fill="#3b6af9">
  <path d="m50 11.5c-10.211 0-20.004 4.0547-27.223 11.277-7.2227 7.2188-11.277 17.012-11.277 27.223s4.0547 20.004 11.277 27.223c7.2188 7.2227 17.012 11.277 27.223 11.277s20.004-4.0547 27.223-11.277c7.2227-7.2188 11.277-17.012 11.277-27.223-0.027344-10.203-4.0898-19.98-11.305-27.195-7.2148-7.2148-16.992-11.277-27.195-11.305zm0 73c-9.1484 0-17.926-3.6367-24.395-10.105s-10.105-15.246-10.105-24.395 3.6367-17.926 10.105-24.395 15.246-10.105 24.395-10.105 17.926 3.6367 24.395 10.105 10.105 15.246 10.105 24.395c-0.027344 9.1406-3.668 17.902-10.133 24.367-6.4648 6.4648-15.227 10.105-24.367 10.133z"/>
  <path d="m35.602 48h28.801v4h-28.801z"/>
 </g>
</svg>
