<?xml version="1.0" encoding="UTF-8"?>
<svg width="100pt" height="100pt" version="1.1" viewBox="0 0 100 100" xmlns="http://www.w3.org/2000/svg">
 <path d="m54.5 37.5h-18.344l10.586-10.586-2.8281-2.8281-15.414 15.414 15.414 15.414 2.8281-2.8281-10.586-10.586h18.344c6.6172 0 12 5.3828 12 12s-5.3828 12-12 12h-16v4h16c8.8203 0 16-7.1797 16-16s-7.1797-16-16-16zm-4-30c-23.16 0-42 18.844-42 42s18.84 42 42 42 42-18.844 42-42-18.84-42-42-42zm0 80c-20.953 0-38-17.047-38-38s17.047-38 38-38 38 17.047 38 38-17.047 38-38 38z" fill="#3b6af9"/>
</svg>
