<?xml version="1.0" encoding="UTF-8"?>
<svg width="1200pt" height="1200pt" version="1.1" viewBox="0 0 1200 1200" xmlns="http://www.w3.org/2000/svg">
 <path d="m943.99 196.01h-420c-49.633 0-90 40.367-90 90v185.65c0 16.57 13.43 30 30 30 16.57 0 30-13.43 30-30v-185.65c0-16.547 13.453-30 30-30h420c16.547 0 30 13.453 30 30v627.98c0 16.547-13.453 30-30 30h-420c-16.547 0-30-13.453-30-30v-185.65c0-16.57-13.43-30-30-30-16.57 0-30 13.43-30 30v185.65c0 49.633 40.367 90 90 90h420c49.633 0 90-40.367 90-90v-627.98c0-49.633-40.367-90-90-90zm-353.72 555.3c-11.723 11.723-11.723 30.707 0 42.422 5.8555 5.8555 13.535 8.7852 21.215 8.7852s15.348-2.9297 21.215-8.7852l172.52-172.52c0.16797-0.16797 0.27734-0.37109 0.44531-0.53906 1.1992-1.2461 2.3164-2.5781 3.2773-4.0195 0.53906-0.81641 0.92578-1.7031 1.3789-2.5547 0.46875-0.86328 0.99609-1.7031 1.3789-2.6172 0.43359-1.0547 0.68359-2.1484 0.99609-3.2266 0.23828-0.79297 0.53906-1.5586 0.70703-2.375 0.38281-1.9453 0.60156-3.9102 0.60156-5.8789v-0.011719c0-0.085937-0.023437-0.15625-0.023437-0.23828-0.011719-1.8828-0.20312-3.7578-0.5625-5.6172-0.21484-1.0195-0.57422-1.9688-0.86328-2.9414-0.27734-0.875-0.46875-1.7773-0.82812-2.6523-0.49219-1.2109-1.1641-2.3047-1.8008-3.4336-0.32422-0.57422-0.57422-1.1758-0.9375-1.7266-1.1289-1.7031-2.4102-3.2656-3.8516-4.7031l-172.43-172.44c-11.723-11.723-30.707-11.723-42.422 0-11.723 11.711-11.723 30.707 0 42.422l121.3 121.31-539.58-0.007813c-16.57 0-30 13.43-30 30s13.43 30 30 30h539.59z" fill="#3b6af9"/>
</svg>
